<svg display="none" xmlns="http://www.w3.org/2000/svg">
    <symbol id="logo" viewBox="0 0 178 53">
        <path d="M46.4473 9.30338C40.0647 9.32257 34.278 11.1065 29.2026 15.1731C26.4919 17.3407 24.1465 19.8728 21.7241 22.3281C15.7836 28.2938 8.805 31.4589 0.365273 30.5765C0.115349 29.157 0 27.7375 0 26.2797C0 24.8026 0.115349 23.364 0.346048 21.9637C5.03692 21.4074 9.49709 22.3473 13.7842 24.3614C15.9759 25.3973 15.9567 25.4356 17.9753 23.6709C17.8599 23.5941 17.7446 23.5366 17.6484 23.4599C12.65 20.2564 7.15166 18.8561 1.24962 19.1631C1.15349 19.1631 1.07659 19.1631 0.980469 19.1822C1.17272 18.4917 1.40342 17.8011 1.65334 17.1297C7.67073 16.3433 13.2459 17.7244 18.3982 21.0621C19.9554 22.0788 19.917 22.0788 21.2435 20.7552C21.7241 20.2756 21.6472 20.0454 21.1474 19.681C18.9365 18.0888 16.5911 16.7269 13.9957 15.8445C10.3814 14.6169 6.70948 14.003 2.92218 14.2716C3.30668 13.5235 3.7104 12.8137 4.1718 12.1232C4.7101 12.0656 5.24839 12.0273 5.80591 12.0081C11.7464 11.9697 17.1294 13.6386 21.8395 17.3407C23.3582 18.53 23.3582 18.5109 24.7617 17.1489C25.1461 16.7653 25.1846 16.5735 24.7424 16.209C21.8587 13.8496 18.7443 11.8738 15.1492 10.7421C12.2463 9.84049 9.28562 9.30338 6.24809 9.30338C11.0543 3.60626 18.2829 0 26.3381 0C34.3933 0 41.6026 3.60626 46.4473 9.30338Z" fill="#0096AF"/>
<path d="M49.754 14.2524C43.083 13.9647 36.9694 15.4992 31.548 19.6426C28.6066 21.8869 26.1074 24.5724 23.5313 27.1812C17.4177 33.3387 10.2469 36.4654 1.63411 35.3912C1.38419 34.739 1.17272 34.0676 0.980469 33.3963C1.09582 33.3963 1.23039 33.4154 1.38419 33.4154C1.67256 33.4346 1.96094 33.4346 2.24931 33.4346C9.59322 33.4346 15.9951 30.9985 21.5319 26.1646C24.1849 23.8435 26.415 21.1196 29.0296 18.7602C34.1242 14.1948 39.9878 11.8162 46.851 12.0081C47.4086 12.0273 47.9661 12.0656 48.5236 12.1232C48.9658 12.8137 49.3887 13.5235 49.754 14.2524Z" fill="#0096AF"/>
<path d="M51.6956 19.163C47.8314 18.9328 44.0633 19.3932 40.3913 20.6976C35.0853 22.5774 30.9712 26.1645 27.2031 30.1736C25.7997 31.6698 24.3578 33.1085 22.7814 34.4321C17.7829 38.6713 11.9962 40.6663 5.45974 40.532C5.01757 40.532 4.5754 40.4936 4.13322 40.4361C3.69105 39.7455 3.28733 39.0358 2.90283 38.3069C10.7466 38.633 17.533 36.1393 23.435 30.9984C26.0496 28.7157 28.1835 25.9919 30.7981 23.7284C34.2971 20.6784 38.1228 18.2806 42.7752 17.4174C45.4859 16.9187 48.1966 16.7844 51.0227 17.1105C51.2726 17.7627 51.5033 18.4533 51.6956 19.163Z" fill="#0096AF"/>
<path d="M52.6763 26.2797C52.6763 27.7567 52.561 29.1954 52.3303 30.6149C47.4856 31.0753 42.8332 30.3655 38.4499 28.0636C36.7197 27.1429 36.7389 27.1621 35.2201 28.3514C34.6242 28.8118 34.778 28.9652 35.297 29.3105C39.6803 32.2262 44.5634 33.3004 49.7349 33.3963C50.3309 33.3963 50.9461 33.4347 51.5613 33.3963C51.6189 33.3963 51.6766 33.3963 51.7151 33.3771C51.5228 34.0677 51.2921 34.7582 51.0422 35.4296C45.0633 36.0626 39.4304 35.0843 34.3358 31.5356C32.644 30.3655 32.6632 30.3655 31.2598 31.9001C30.9522 32.2454 30.933 32.3988 31.3175 32.7057C36.7966 37.0218 43.0254 38.6331 49.7926 38.2686C49.4081 39.0167 49.0044 39.7264 48.543 40.417C47.8701 40.4746 47.2164 40.5321 46.5628 40.5513C43.9482 40.628 41.4298 40.1101 38.9113 39.6114C35.9314 38.6522 33.2592 37.1368 30.8176 35.1994C29.2989 33.991 29.2989 34.0101 27.9147 35.4104C27.5109 35.8325 27.5494 36.0243 27.9723 36.3696C29.2604 37.4054 30.5869 38.4412 31.9903 39.3044C33.6245 40.3211 35.297 41.261 37.1811 41.7214C40.1994 42.834 43.3138 43.2368 46.4859 43.2176C41.622 48.9339 34.4127 52.5594 26.3382 52.5594C18.283 52.5594 11.0737 48.9531 6.229 43.256C12.9 43.1601 18.8405 41.0692 24.0697 36.8683C26.6074 34.835 28.7221 32.3988 31.0099 30.097C36.8735 24.208 43.7944 21.0813 52.2534 21.9062C52.2726 21.9062 52.2918 21.9062 52.311 21.9062C52.561 23.3448 52.6763 24.8027 52.6763 26.2797Z" fill="#0096AF"/>
<path d="M63.8948 19.58C62.483 18.5336 61.7569 16.9841 61.6763 14.9516C61.6763 14.7705 61.7368 14.6296 61.8578 14.4888C61.9788 14.368 62.12 14.3077 62.3015 14.3077H63.8141C64.2376 14.3077 64.4998 14.529 64.5603 14.9919C64.6813 16.2596 65.1654 17.2054 66.0326 17.8091C66.8998 18.4128 67.9687 18.7147 69.2797 18.7147C70.7721 18.7147 71.9217 18.2317 72.7486 17.2457C73.5553 16.2596 73.9788 14.9516 73.9788 13.2814V2.75681H63.4511C63.2494 2.75681 63.088 2.69644 62.967 2.5757C62.846 2.45496 62.7855 2.29398 62.7855 2.09274V0.96583C62.7855 0.764596 62.846 0.603609 62.967 0.482868C63.088 0.362128 63.2494 0.301758 63.4511 0.301758H76.0562C76.278 0.301758 76.4394 0.362128 76.5805 0.482868C76.7015 0.603609 76.7822 0.78472 76.7822 1.00608V13.3619C76.7822 14.9315 76.4797 16.2999 75.8746 17.4872C75.2696 18.6543 74.4024 19.58 73.273 20.2239C72.1435 20.8679 70.7923 21.1899 69.2393 21.1899C67.0813 21.1496 65.3065 20.6264 63.8948 19.58Z" fill="#0096AF"/>
<path d="M82.6309 19.3385C81.6024 18.1311 81.0981 16.5213 81.0981 14.529V6.25831C81.0981 6.05708 81.1586 5.89609 81.2797 5.77535C81.4007 5.65461 81.562 5.59424 81.7637 5.59424H83.115C83.3166 5.59424 83.478 5.65461 83.599 5.77535C83.72 5.89609 83.8007 6.05708 83.8007 6.25831V14.4083C83.8007 17.3866 85.0914 18.8757 87.6931 18.8757C88.9436 18.8757 89.952 18.4732 90.678 17.6884C91.4243 16.9036 91.7873 15.7968 91.7873 14.4083V6.25831C91.7873 6.05708 91.8478 5.89609 91.989 5.77535C92.11 5.65461 92.2713 5.59424 92.473 5.59424H93.8243C94.026 5.59424 94.1873 5.65461 94.3083 5.77535C94.4293 5.89609 94.4898 6.05708 94.4898 6.25831V20.1837C94.4898 20.3849 94.4293 20.5459 94.3083 20.6667C94.1873 20.7874 94.026 20.8478 93.8243 20.8478H92.5537C92.352 20.8478 92.1906 20.7874 92.0696 20.6667C91.9486 20.5459 91.868 20.3849 91.868 20.1837V18.8556C91.3032 19.6203 90.6377 20.1837 89.8713 20.5661C89.1049 20.9484 88.1368 21.1295 86.9469 21.1295C85.0914 21.1496 83.6393 20.5459 82.6309 19.3385Z" fill="#0096AF"/>
<path d="M100.722 20.4857C99.7943 20.0429 99.0884 19.5399 98.6447 18.9764C98.201 18.4129 97.959 17.93 97.959 17.5678C97.959 17.3665 98.0195 17.2257 98.1607 17.1049C98.3018 17.0043 98.443 16.9439 98.6044 16.9439H99.8346C99.9556 16.9439 100.036 16.9641 100.117 17.0043C100.177 17.0445 100.278 17.125 100.399 17.2659C100.843 17.8092 101.347 18.252 101.912 18.5538C102.477 18.8758 103.223 19.0166 104.171 19.0166C105.24 19.0166 106.087 18.8154 106.712 18.4331C107.357 18.0507 107.66 17.4671 107.66 16.7226C107.66 16.2396 107.519 15.8371 107.257 15.5554C106.974 15.2536 106.53 14.992 105.885 14.7706C105.24 14.5291 104.292 14.2876 103.041 14.0059C101.327 13.6437 100.117 13.1004 99.4111 12.396C98.7052 11.6917 98.3422 10.7862 98.3422 9.65926C98.3422 8.93482 98.564 8.2305 98.9876 7.56643C99.4111 6.88223 100.056 6.3389 100.924 5.91631C101.771 5.49371 102.799 5.29248 103.969 5.29248C105.199 5.29248 106.268 5.49371 107.135 5.91631C108.003 6.31877 108.668 6.80174 109.112 7.36519C109.556 7.90852 109.778 8.37136 109.778 8.75371C109.778 8.93482 109.717 9.07568 109.576 9.19642C109.455 9.31716 109.293 9.37753 109.112 9.37753H107.983C107.7 9.37753 107.519 9.27691 107.398 9.05556C107.055 8.69334 106.793 8.39148 106.551 8.19025C106.329 7.98902 105.986 7.80791 105.562 7.66704C105.139 7.52618 104.594 7.44568 103.949 7.44568C102.981 7.44568 102.255 7.64692 101.73 8.04939C101.226 8.45185 100.964 8.99519 100.964 9.65926C100.964 10.0617 101.065 10.4239 101.287 10.7057C101.509 10.9874 101.912 11.249 102.517 11.4905C103.122 11.732 104.03 11.9936 105.22 12.2351C107.095 12.6174 108.406 13.1809 109.172 13.9053C109.939 14.6297 110.342 15.5554 110.342 16.7025C110.342 17.5476 110.1 18.3123 109.616 18.9965C109.132 19.6807 108.426 20.224 107.458 20.6064C106.51 20.9887 105.381 21.19 104.05 21.19C102.799 21.1497 101.67 20.9284 100.722 20.4857Z" fill="#0096AF"/>
<path d="M115.182 15.7164V7.84813H112.863C112.661 7.84813 112.5 7.78776 112.399 7.66702C112.298 7.54628 112.218 7.38529 112.218 7.20418V6.25838C112.218 6.05715 112.278 5.89616 112.399 5.77542C112.52 5.65468 112.682 5.59431 112.863 5.59431H115.182V0.664072C115.182 0.462838 115.243 0.301851 115.364 0.181111C115.485 0.0603702 115.646 0 115.828 0H117.119C117.32 0 117.482 0.0603702 117.603 0.181111C117.724 0.301851 117.804 0.462838 117.804 0.664072V5.57419H121.455C121.656 5.57419 121.818 5.63456 121.939 5.7553C122.06 5.87604 122.12 6.03702 122.12 6.23826V7.18406C122.12 7.38529 122.06 7.54628 121.939 7.6469C121.818 7.76764 121.656 7.82801 121.455 7.82801H117.804V15.495C117.804 16.5012 117.966 17.2458 118.288 17.7489C118.611 18.2519 119.176 18.5135 119.962 18.5135H121.757C121.959 18.5135 122.12 18.5739 122.221 18.6947C122.342 18.8154 122.403 18.9764 122.403 19.1776V20.1435C122.403 20.3448 122.342 20.5058 122.221 20.6265C122.1 20.7472 121.939 20.8076 121.757 20.8076H119.761C116.695 20.868 115.182 19.1575 115.182 15.7164Z" fill="#0096AF"/>
<path d="M63.8948 44.2875C62.5233 42.8587 61.7973 40.9269 61.6964 38.4517C61.6763 37.9285 61.6763 37.0632 61.6763 35.8558C61.6763 34.6484 61.6763 33.7629 61.6964 33.2196C61.7973 30.7444 62.5233 28.8126 63.8948 27.3838C65.2662 25.9551 67.2427 25.2507 69.8645 25.2507C71.6192 25.2507 73.0915 25.5526 74.3217 26.1764C75.5318 26.8002 76.4595 27.6052 77.0847 28.6113C77.71 29.6175 78.0326 30.6841 78.0932 31.811C78.0932 31.9921 78.0326 32.1329 77.9116 32.2336C77.7906 32.3342 77.6293 32.3945 77.4478 32.3945H75.9755C75.7738 32.3945 75.6125 32.3543 75.5116 32.2537C75.3906 32.1531 75.3099 31.9921 75.2494 31.7506C74.9066 30.2413 74.3015 29.1748 73.4343 28.5711C72.5671 27.9674 71.3772 27.6655 69.8847 27.6655C66.4763 27.6655 64.6813 29.5571 64.5603 33.3605C64.5401 33.8837 64.5402 34.7087 64.5402 35.7954C64.5402 36.9022 64.5401 37.7273 64.5603 38.2907C64.7015 42.0739 66.4763 43.9655 69.8847 43.9655C71.357 43.9655 72.5267 43.6637 73.4141 43.06C74.3015 42.4563 74.9066 41.4098 75.2494 39.9207C75.3099 39.6792 75.3906 39.5182 75.5116 39.4176C75.6326 39.317 75.794 39.2768 75.9755 39.2768H77.4478C77.6293 39.2768 77.7705 39.3371 77.9116 39.4377C78.0326 39.5384 78.0932 39.6792 78.0932 39.8603C78.0326 40.9872 77.6898 42.0739 77.0847 43.06C76.4595 44.0661 75.552 44.8711 74.3217 45.4949C73.1116 46.1187 71.6192 46.4206 69.8645 46.4206C67.2427 46.4206 65.246 45.6961 63.8948 44.2875Z" fill="#0096AF"/>
<path d="M81.9253 45.9376C81.8043 45.8169 81.7236 45.6559 81.7236 45.4546V25.9349C81.7236 25.7136 81.7841 25.5526 81.9253 25.4318C82.0463 25.3111 82.2077 25.2507 82.4093 25.2507H83.7001C83.9018 25.2507 84.0631 25.3111 84.1841 25.4318C84.3052 25.5526 84.3657 25.7136 84.3657 25.9148V45.4345C84.3657 45.6358 84.3052 45.7967 84.1841 45.9175C84.0631 46.0382 83.9018 46.0986 83.7001 46.0986H82.4093C82.2077 46.1187 82.0463 46.0583 81.9253 45.9376Z" fill="#0096AF"/>
<path d="M90.0728 44.5493C88.8829 43.3016 88.2174 41.6112 88.0963 39.458L88.0762 38.4519L88.0963 37.4859C88.2174 35.373 88.8627 33.6826 90.0728 32.435C91.2627 31.1873 92.8762 30.5635 94.8728 30.5635C97.0308 30.5635 98.7048 31.2477 99.8947 32.6161C101.085 33.9845 101.67 35.8559 101.67 38.2104V38.7336C101.67 38.9348 101.609 39.0958 101.468 39.2166C101.347 39.3373 101.185 39.3977 100.984 39.3977H90.7585V39.6593C90.819 40.927 91.2022 42.0137 91.9283 42.9193C92.6543 43.8248 93.6224 44.2675 94.8123 44.2675C95.7401 44.2675 96.4863 44.0864 97.0712 43.7242C97.6561 43.362 98.0796 42.9796 98.3821 42.5973C98.5636 42.3558 98.7048 42.2149 98.7855 42.1747C98.8863 42.1345 99.0477 42.0942 99.2897 42.0942H100.58C100.762 42.0942 100.903 42.1345 101.044 42.2351C101.165 42.3357 101.226 42.4564 101.226 42.6174C101.226 43.04 100.964 43.5632 100.439 44.1669C99.9149 44.7706 99.1485 45.2938 98.1804 45.7365C97.2124 46.1793 96.1031 46.4006 94.8325 46.4006C92.856 46.4207 91.2627 45.7969 90.0728 44.5493ZM98.9872 37.3853V37.3048C98.9872 35.9364 98.604 34.8095 97.8577 33.9442C97.1115 33.0789 96.1031 32.6563 94.8527 32.6563C93.5821 32.6563 92.5737 33.0789 91.8476 33.9442C91.1216 34.8095 90.7585 35.9163 90.7585 37.3048V37.3853H98.9872Z" fill="#0096AF"/>
<path d="M106.853 45.8169C106.046 45.4345 105.381 44.8912 104.917 44.207C104.433 43.5228 104.191 42.7782 104.191 41.9532C104.191 40.6653 104.715 39.5987 105.784 38.7737C106.853 37.9486 108.285 37.4053 110.12 37.1236L114.537 36.4997V35.6545C114.537 33.6422 113.367 32.636 111.028 32.636C110.12 32.636 109.394 32.8171 108.85 33.1794C108.305 33.5416 107.902 33.9642 107.64 34.4673C107.559 34.6685 107.478 34.7892 107.398 34.8697C107.317 34.9301 107.196 34.9703 107.035 34.9703H105.885C105.704 34.9703 105.562 34.91 105.421 34.7691C105.3 34.6484 105.24 34.4874 105.24 34.3063C105.24 33.8636 105.441 33.3403 105.865 32.7366C106.288 32.1329 106.934 31.6097 107.821 31.1871C108.709 30.7646 109.778 30.5231 111.068 30.5231C113.267 30.5231 114.84 31.0262 115.788 32.0525C116.736 33.0787 117.22 34.3465 117.22 35.8759V45.4345C117.22 45.6358 117.159 45.7967 117.038 45.9175C116.917 46.0382 116.756 46.0986 116.554 46.0986H115.263C115.062 46.0986 114.9 46.0382 114.799 45.9175C114.678 45.7967 114.618 45.6358 114.618 45.4345V44.1466C114.194 44.7906 113.549 45.3339 112.742 45.7565C111.915 46.1791 110.867 46.4004 109.556 46.4004C108.547 46.4206 107.66 46.2193 106.853 45.8169ZM113.287 42.9996C114.114 42.1544 114.517 40.9269 114.517 39.317V38.4919L111.068 38.995C109.656 39.1963 108.588 39.5182 107.862 40.0012C107.135 40.464 106.772 41.0677 106.772 41.7721C106.772 42.577 107.095 43.2008 107.761 43.6234C108.426 44.046 109.193 44.2674 110.1 44.2674C111.391 44.2674 112.46 43.8448 113.287 42.9996Z" fill="#0096AF"/>
<path d="M121.657 45.9377C121.536 45.8169 121.475 45.6559 121.475 45.4547V31.5293C121.475 31.3281 121.536 31.1671 121.657 31.0463C121.778 30.9256 121.939 30.8652 122.141 30.8652H123.411C123.633 30.8652 123.794 30.9256 123.915 31.0463C124.036 31.1671 124.097 31.3281 124.097 31.5494V32.8373C124.682 32.1129 125.368 31.5494 126.154 31.1671C126.921 30.7847 127.889 30.5835 129.058 30.5835C130.934 30.5835 132.406 31.1872 133.455 32.3946C134.504 33.602 135.008 35.1918 135.008 37.1639V45.4346C135.008 45.6358 134.947 45.7968 134.806 45.9176C134.685 46.0383 134.524 46.0987 134.322 46.0987H132.971C132.769 46.0987 132.608 46.0383 132.487 45.9176C132.366 45.7968 132.305 45.6358 132.305 45.4346V37.2846C132.305 35.876 131.963 34.7692 131.277 33.9844C130.591 33.1995 129.603 32.8172 128.332 32.8172C127.082 32.8172 126.073 33.2197 125.327 34.0045C124.581 34.7893 124.198 35.8961 124.198 37.2846V45.4346C124.198 45.6358 124.137 45.7968 123.996 45.9176C123.875 46.0383 123.714 46.0987 123.512 46.0987H122.161C121.959 46.1188 121.798 46.0584 121.657 45.9377Z" fill="#0096AF"/>
<path d="M139.223 27.7662C139.102 27.6455 139.042 27.4845 139.042 27.2833V25.7539C139.042 25.5526 139.102 25.3917 139.223 25.2508C139.344 25.1099 139.505 25.0496 139.707 25.0496H141.442C141.643 25.0496 141.805 25.1099 141.946 25.2508C142.087 25.3917 142.147 25.5526 142.147 25.7539V27.2833C142.147 27.4845 142.087 27.6455 141.946 27.7662C141.805 27.887 141.643 27.9473 141.442 27.9473H139.707C139.526 27.9473 139.364 27.887 139.223 27.7662ZM139.465 45.9377C139.344 45.8169 139.284 45.6559 139.284 45.4547V31.5293C139.284 31.3281 139.344 31.1671 139.465 31.0463C139.586 30.9256 139.747 30.8652 139.949 30.8652H141.24C141.442 30.8652 141.603 30.9256 141.724 31.0463C141.845 31.1671 141.905 31.3281 141.905 31.5293V45.4346C141.905 45.6358 141.845 45.7968 141.724 45.9175C141.603 46.0383 141.442 46.0987 141.24 46.0987H139.949C139.747 46.1188 139.586 46.0584 139.465 45.9377Z" fill="#0096AF"/>
<path d="M146.524 45.9377C146.403 45.8169 146.342 45.6559 146.342 45.4547V31.5293C146.342 31.3281 146.403 31.1671 146.524 31.0463C146.645 30.9256 146.806 30.8652 147.008 30.8652H148.278C148.5 30.8652 148.662 30.9256 148.783 31.0463C148.904 31.1671 148.964 31.3281 148.964 31.5494V32.8373C149.549 32.1129 150.235 31.5494 151.021 31.1671C151.788 30.7847 152.756 30.5835 153.926 30.5835C155.801 30.5835 157.273 31.1872 158.322 32.3946C159.371 33.602 159.875 35.1918 159.875 37.1639V45.4346C159.875 45.6358 159.815 45.7968 159.673 45.9176C159.552 46.0383 159.391 46.0987 159.189 46.0987H157.838C157.636 46.0987 157.475 46.0383 157.354 45.9176C157.233 45.7968 157.173 45.6358 157.173 45.4346V37.2846C157.173 35.876 156.83 34.7692 156.144 33.9844C155.458 33.1995 154.47 32.8172 153.199 32.8172C151.949 32.8172 150.941 33.2197 150.194 34.0045C149.448 34.7893 149.065 35.8961 149.065 37.2846V45.4346C149.065 45.6358 149.004 45.7968 148.863 45.9176C148.742 46.0383 148.581 46.0987 148.379 46.0987H147.028C146.826 46.1188 146.665 46.0584 146.524 45.9377Z" fill="#0096AF"/>
<path d="M166.43 51.7734C165.442 51.2301 164.756 50.6062 164.353 49.8818C163.949 49.1775 163.747 48.5738 163.747 48.0506C163.747 47.8695 163.808 47.7286 163.949 47.5877C164.09 47.467 164.252 47.3865 164.413 47.3865H165.704C165.885 47.3865 166.026 47.4267 166.148 47.5274C166.269 47.6078 166.369 47.7688 166.45 48.0103C166.995 49.5799 168.245 50.3648 170.201 50.3648C171.674 50.3648 172.763 50.0428 173.469 49.419C174.174 48.7951 174.537 47.6883 174.537 46.0986V44.0661C173.408 45.515 171.815 46.2395 169.758 46.2395C167.68 46.2395 166.127 45.5754 165.079 44.2472C164.05 42.9191 163.505 41.2287 163.445 39.1963L163.425 38.3712L163.445 37.5864C163.505 35.574 164.05 33.8837 165.079 32.5354C166.107 31.1871 167.66 30.5231 169.758 30.5231C171.815 30.5231 173.428 31.2878 174.598 32.7769V31.5091C174.598 31.3079 174.658 31.1469 174.779 31.006C174.9 30.8652 175.062 30.8048 175.263 30.8048H176.534C176.736 30.8048 176.897 30.8652 177.018 31.006C177.139 31.1469 177.22 31.3079 177.22 31.5091V45.7766C177.22 50.3044 174.941 52.5582 170.363 52.5582C168.729 52.5783 167.418 52.3167 166.43 51.7734ZM173.408 42.6374C174.114 41.7519 174.477 40.6653 174.537 39.4176C174.558 39.2365 174.558 38.8944 174.558 38.3913C174.558 37.9084 174.558 37.5663 174.537 37.3852C174.477 36.1375 174.094 35.0508 173.408 34.1654C172.702 33.28 171.674 32.8373 170.302 32.8373C168.89 32.8373 167.862 33.28 167.216 34.1654C166.571 35.0508 166.228 36.218 166.168 37.6266L166.148 38.3913L166.168 39.1761C166.228 40.5848 166.571 41.7318 167.216 42.6374C167.862 43.5228 168.89 43.9655 170.302 43.9655C171.674 43.9655 172.702 43.5228 173.408 42.6374Z" fill="#0096AF"/>
    </symbol>
    
    <symbol id="viber" viewBox="0 0 48 51">
        <path d="M27.8495 27.3594C28.6821 26.2767 29.6812 26.1101 30.8468 26.8597L35.3427 30.2327C36.0087 31.0656 35.7173 32.2316 34.4685 33.7307C33.2196 35.2299 32.054 35.8545 30.9717 35.6047C26.559 34.6052 22.3129 32.1067 18.2333 28.1089C14.1537 24.1112 11.6144 19.7804 10.6153 15.1164C10.6153 13.4506 11.656 12.0348 13.7374 10.8688C14.8198 10.1192 15.7356 10.3274 16.4849 11.4934L19.6071 15.8659C20.1066 16.8654 19.8152 17.7815 18.7329 18.6144C13.8623 20.4883 25.102 32.6064 27.8495 27.3594ZM3.74657 22.1124C3.74657 31.8568 5.49497 33.9806 8.24246 36.8539C9.11666 37.7284 12.2388 39.2276 12.9881 39.2276V47.8477C12.9881 48.3474 13.4877 48.7222 13.9872 48.2224L20.6061 40.3519L23.8532 40.4769C41.8367 40.4769 43.9598 33.4809 43.9598 22.1124C43.9598 10.7439 41.8367 3.74786 23.8532 3.74786C5.86963 3.74786 3.74657 10.7439 3.74657 22.1124ZM0 22.1124C0 6.37136 6.86871 0 23.8532 0C40.8376 0 47.7063 6.37136 47.7063 22.1124C47.7063 37.8534 40.8376 44.2247 23.8532 44.2247C22.6043 44.2247 21.6052 44.2247 19.8568 43.9749L15.1112 49.3468C14.237 50.3462 11.6144 50.721 11.6144 47.7227V42.4757C10.8651 42.4757 9.11666 41.7262 6.74383 40.227C4.371 38.6029 0 34.7302 0 22.1124Z" fill="#665CA7"/>
<path d="M25.1017 17.4153C25.6148 17.3978 26.126 17.4861 26.6036 17.6746C27.0812 17.863 27.5149 18.1477 27.878 18.5108C28.241 18.874 28.5255 19.3079 28.7139 19.7856C28.9023 20.2634 28.9906 20.7748 28.9731 21.2881M24.2275 14.0422C25.3094 14.041 26.3803 14.2595 27.3752 14.6846C28.3702 15.1096 29.2686 15.7323 30.0159 16.5149C30.7632 17.2975 31.3439 18.2237 31.7228 19.2375C32.1017 20.2512 32.2709 21.3313 32.2202 22.4124M23.1035 10.794C24.7915 10.7548 26.4691 11.069 28.0286 11.7164C29.5881 12.3639 30.9951 13.3303 32.1593 14.5537C33.3234 15.777 34.2191 17.2304 34.7887 18.8204C35.3584 20.4104 35.5895 22.102 35.4672 23.7866" stroke="#665CA7" stroke-linecap="round"/>
    </symbol>
<symbol id="whatsapp" viewBox="0 0 49 49">
        <path d="M41.7121 7.052C37.272 2.48126 31.1341 0 24.8657 0C11.5452 0 0.836647 10.8392 0.967239 24.029C0.967239 28.208 2.14257 32.2564 4.10146 35.913L0.706055 48.3193L13.3735 45.0545C16.8995 47.0133 20.8173 47.9275 24.7351 47.9275C37.925 47.9275 48.6335 37.0883 48.6335 23.8985C48.6335 17.4994 46.1523 11.4922 41.7121 7.052ZM24.8657 43.8791C21.3397 43.8791 17.8137 42.965 14.8101 41.1367L14.0265 40.7449L6.45213 42.7038L8.41102 35.26L7.88865 34.4765C2.14257 25.2044 4.88502 12.9287 14.2877 7.18259C23.6904 1.43652 35.8355 4.17896 41.5815 13.5816C47.3276 22.9843 44.5852 35.1294 35.1825 40.8755C32.1789 42.8344 28.5223 43.8791 24.8657 43.8791ZM36.3578 29.3833L34.9213 28.7304C34.9213 28.7304 32.8318 27.8162 31.5259 27.1633C31.3953 27.1633 31.2647 27.0327 31.1341 27.0327C30.7424 27.0327 30.4812 27.1633 30.22 27.2939C30.22 27.2939 30.0894 27.4245 28.2611 29.5139C28.1305 29.7751 27.8693 29.9057 27.6081 29.9057H27.4775C27.347 29.9057 27.0858 29.7751 26.9552 29.6445L26.3022 29.3833C24.8657 28.7304 23.5598 27.9468 22.515 26.9021C22.2538 26.6409 21.8621 26.3797 21.6009 26.1185C20.6867 25.2044 19.7726 24.1596 19.1196 22.9843L18.989 22.7231C18.8584 22.5925 18.8584 22.4619 18.7278 22.2007C18.7278 21.9396 18.7278 21.6784 18.8584 21.5478C18.8584 21.5478 19.3808 20.8948 19.7726 20.503C20.0338 20.2419 20.1644 19.8501 20.4255 19.5889C20.6867 19.1971 20.8173 18.6747 20.6867 18.283C20.5561 17.63 18.989 14.104 18.5972 13.3204C18.3361 12.9287 18.0749 12.7981 17.6831 12.6675H17.2913C17.0301 12.6675 16.6384 12.6675 16.2466 12.6675C15.9854 12.6675 15.7242 12.7981 15.463 12.7981L15.3324 12.9287C15.0712 13.0593 14.8101 13.3204 14.5489 13.451C14.2877 13.7122 14.1571 13.9734 13.8959 14.2346C12.9818 15.4099 12.4594 16.8464 12.4594 18.283C12.4594 19.3277 12.7206 20.3724 13.1124 21.2866L13.2429 21.6784C14.4183 24.1596 15.9854 26.3797 18.0749 28.3386L18.5972 28.861C18.989 29.2527 19.3808 29.5139 19.642 29.9057C22.3844 32.2564 25.5187 33.9541 29.0447 34.8682C29.4364 34.9988 29.9588 34.9988 30.3506 35.1294C30.7424 35.1294 31.2647 35.1294 31.6565 35.1294C32.3095 35.1294 33.093 34.8682 33.6154 34.607C34.0072 34.3459 34.2684 34.3459 34.5295 34.0847L34.7907 33.8235C35.0519 33.5623 35.3131 33.4317 35.5743 33.1705C35.8355 32.9093 36.0967 32.6482 36.2272 32.387C36.4884 31.8646 36.619 31.2116 36.7496 30.5587C36.7496 30.2975 36.7496 29.9057 36.7496 29.6445C36.7496 29.6445 36.619 29.5139 36.3578 29.3833Z" fill="#00E676"/>
    </symbol>
    <symbol id="question" viewBox="0 0 40 40">
        <path d="M20 40C8.954 40 0 31.046 0 20C0 8.954 8.954 0 20 0C31.046 0 40 8.954 40 20C40 31.046 31.046 40 20 40ZM20 36C24.2435 36 28.3131 34.3143 31.3137 31.3137C34.3143 28.3131 36 24.2435 36 20C36 15.7565 34.3143 11.6869 31.3137 8.68629C28.3131 5.68571 24.2435 4 20 4C15.7565 4 11.6869 5.68571 8.68629 8.68629C5.68571 11.6869 4 15.7565 4 20C4 24.2435 5.68571 28.3131 8.68629 31.3137C11.6869 34.3143 15.7565 36 20 36V36ZM18 26H22V30H18V26ZM22 22.71V24H18V21C18 20.4696 18.2107 19.9609 18.5858 19.5858C18.9609 19.2107 19.4696 19 20 19C20.5682 19 21.1246 18.8386 21.6047 18.5347C22.0847 18.2307 22.4685 17.7967 22.7115 17.2832C22.9546 16.7696 23.0467 16.1976 22.9774 15.6337C22.908 15.0698 22.6799 14.5372 22.3197 14.0978C21.9594 13.6585 21.4818 13.3305 20.9424 13.1519C20.4031 12.9734 19.8241 12.9517 19.2729 13.0894C18.7216 13.2271 18.2208 13.5185 17.8287 13.9296C17.4366 14.3408 17.1694 14.8549 17.058 15.412L13.134 14.626C13.3773 13.4102 13.939 12.2807 14.7618 11.3532C15.5847 10.4256 16.639 9.73316 17.8172 9.34664C18.9953 8.96012 20.255 8.89337 21.4674 9.15323C22.6798 9.41309 23.8014 9.99023 24.7176 10.8256C25.6339 11.6611 26.3118 12.7248 26.6822 13.9081C27.0526 15.0914 27.1021 16.3519 26.8257 17.5606C26.5493 18.7693 25.9569 19.883 25.109 20.7877C24.2612 21.6925 23.1883 22.3558 22 22.71V22.71Z" fill="#00B6A0"/>
    </symbol>
</svg>